<?xml version="1.0" encoding="utf-8"?>
<!-- Generator: Adobe Illustrator 28.0.0, SVG Export Plug-In . SVG Version: 6.00 Build 0)  -->
<svg version="1.1" id="Layer_1" xmlns="http://www.w3.org/2000/svg" xmlns:xlink="http://www.w3.org/1999/xlink" x="0px" y="0px"
	 viewBox="0 0 593.4 610.1" style="enable-background:new 0 0 593.4 610.1;" xml:space="preserve">
<style type="text/css">
	.st0{fill:#0F172A;}
	.st1{fill:#00F0D9;}
	.st2{fill:url(#SVGID_1_);}
	.st3{fill:url(#SVGID_00000147929283891320304550000002581153936367754401_);}
	.st4{fill:url(#SVGID_00000168833011281072288720000008050307070496889219_);}
</style>
<g>
	<rect class="st0" width="593.4" height="610.1"/>
	<g>
		<g>
			
				<image style="overflow:visible;opacity:0.5;" width="1025" height="1024" xlink:href="7A714DE6.png"  transform="matrix(0.24 0 0 0.24 297.5542 5.1443)">
			</image>
			<g>
				
					<image style="overflow:visible;opacity:0.75;" width="492" height="492" xlink:href="7A714DEA.png"  transform="matrix(0.24 0 0 0.24 361.4214 69.0115)">
				</image>
				<g>
					<circle class="st1" cx="420.4" cy="128" r="28.8"/>
				</g>
			</g>
		</g>
		<g>
			
				<image style="overflow:visible;opacity:0.5;" width="1024" height="1024" xlink:href="7A714DED.png"  transform="matrix(0.24 0 0 0.24 229.6342 148.9043)">
			</image>
			<g>
				
					<image style="overflow:visible;opacity:0.75;" width="492" height="492" xlink:href="7A714DEE.png"  transform="matrix(0.24 0 0 0.24 293.5014 212.7715)">
				</image>
				<g>
					<circle class="st1" cx="352.6" cy="271.7" r="28.8"/>
				</g>
			</g>
		</g>
		<g>
			<linearGradient id="SVGID_1_" gradientUnits="userSpaceOnUse" x1="285.1294" y1="-11.2963" x2="439.7911" y2="527.0831">
				<stop  offset="0" style="stop-color:#00F0D9"/>
				<stop  offset="0.1032" style="stop-color:#02EAD9"/>
				<stop  offset="0.2468" style="stop-color:#07D8DA"/>
				<stop  offset="0.4142" style="stop-color:#0FBADB"/>
				<stop  offset="0.5994" style="stop-color:#1B91DD"/>
				<stop  offset="0.7994" style="stop-color:#2A5CDF"/>
				<stop  offset="1" style="stop-color:#3B1FE2"/>
			</linearGradient>
			<path class="st2" d="M482.7,100.1c-6.4,0-11.5,5.1-11.5,11.5v376.3H393L267.3,352.1c2-3.9,3.1-8.3,3.1-12.9
				c0-15.9-12.9-28.8-28.8-28.8s-28.8,12.9-28.8,28.8c0,15.9,12.9,28.8,28.8,28.8c2.8,0,5.5-0.4,8-1.1l133.3,144h96.9
				c7.9,0,14.3-6.4,14.3-14.3v-385C494.2,105.2,489,100.1,482.7,100.1z"/>
			<g>
				
					<linearGradient id="SVGID_00000093144325621992120420000011078489560802531721_" gradientUnits="userSpaceOnUse" x1="258.6649" y1="164.1296" x2="51.8322" y2="512.5866">
					<stop  offset="0.1285" style="stop-color:#00F0D9"/>
					<stop  offset="0.226" style="stop-color:#04E1DA"/>
					<stop  offset="0.4144" style="stop-color:#10B9DB"/>
					<stop  offset="0.6747" style="stop-color:#2279DE"/>
					<stop  offset="0.9941" style="stop-color:#3B21E2"/>
					<stop  offset="1" style="stop-color:#3B1FE2"/>
				</linearGradient>
				<path style="fill:url(#SVGID_00000093144325621992120420000011078489560802531721_);" d="M352.6,242.9c-2.8,0-5.5,0.4-8,1.1
					l-133.3-144h-97.7c-7.9,0-14.3,6.4-14.3,14.3v385c0,6.4,5.1,11.5,11.5,11.5s11.5-5.1,11.5-11.5V123.1h79l125.7,135.7
					c-2,3.9-3.1,8.3-3.1,12.9c0,15.9,12.9,28.8,28.8,28.8c15.9,0,28.8-12.9,28.8-28.8S368.5,242.9,352.6,242.9z"/>
			</g>
			
				<linearGradient id="SVGID_00000116919527235625164770000010712766451279686795_" gradientUnits="userSpaceOnUse" x1="242.1253" y1="136.3652" x2="340.5858" y2="439.5608">
				<stop  offset="0.268" style="stop-color:#00F0D9"/>
				<stop  offset="0.3435" style="stop-color:#02EAD9"/>
				<stop  offset="0.4486" style="stop-color:#07D8DA"/>
				<stop  offset="0.5712" style="stop-color:#0FBADB"/>
				<stop  offset="0.7068" style="stop-color:#1B91DD"/>
				<stop  offset="0.8532" style="stop-color:#2A5CDF"/>
				<stop  offset="1" style="stop-color:#3B1FE2"/>
			</linearGradient>
			<path style="fill:url(#SVGID_00000116919527235625164770000010712766451279686795_);" d="M449.2,128c0-15.9-12.9-28.8-28.8-28.8
				s-28.8,12.9-28.8,28.8c0,11.8,7.1,22,17.3,26.4v257L182,163.8c-3.3-3.6-8.4-4.8-13-3c-4.6,1.8-7.5,6.1-7.5,11v282.6
				c-10.2,4.4-17.3,14.6-17.3,26.4c0,15.9,12.9,28.8,28.8,28.8s28.8-12.9,28.8-28.8c0-11.8-7.1-22-17.3-26.4V200.6l226.9,247.6
				c3.3,3.6,8.4,4.8,13,3c4.6-1.8,7.5-6.1,7.5-11V154.5C442.1,150,449.2,139.9,449.2,128z"/>
		</g>
	</g>
</g>
</svg>
